<svg xmlns="http://www.w3.org/2000/svg" viewBox="-1.05 -1.05 2.1 2.1">
<path d="M 0 0 L 1.000000 0.000000 A 1 1 0 0 1 0.999657 0.026177 Z" fill="#ff0000" stroke="#ff0000" stroke-width="0.01"/>
<path d="M 0 0 L 0.999848 0.017452 A 1 1 0 0 1 0.999048 0.043619 Z" fill="#ff0400" stroke="#ff0400" stroke-width="0.01"/>
<path d="M 0 0 L 0.999391 0.034899 A 1 1 0 0 1 0.998135 0.061049 Z" fill="#ff0800" stroke="#ff0800" stroke-width="0.01"/>
<path d="M 0 0 L 0.998630 0.052336 A 1 1 0 0 1 0.996917 0.078459 Z" fill="#ff0c00" stroke="#ff0c00" stroke-width="0.01"/>
<path d="M 0 0 L 0.997564 0.069756 A 1 1 0 0 1 0.995396 0.095846 Z" fill="#ff1000" stroke="#ff1000" stroke-width="0.01"/>
<path d="M 0 0 L 0.996195 0.087156 A 1 1 0 0 1 0.993572 0.113203 Z" fill="#ff1500" stroke="#ff1500" stroke-width="0.01"/>
<path d="M 0 0 L 0.994522 0.104528 A 1 1 0 0 1 0.991445 0.130526 Z" fill="#ff1900" stroke="#ff1900" stroke-width="0.01"/>
<path d="M 0 0 L 0.992546 0.121869 A 1 1 0 0 1 0.989016 0.147809 Z" fill="#ff1d00" stroke="#ff1d00" stroke-width="0.01"/>
<path d="M 0 0 L 0.990268 0.139173 A 1 1 0 0 1 0.986286 0.165048 Z" fill="#ff2100" stroke="#ff2100" stroke-width="0.01"/>
<path d="M 0 0 L 0.987688 0.156434 A 1 1 0 0 1 0.983255 0.182236 Z" fill="#ff2600" stroke="#ff2600" stroke-width="0.01"/>
<path d="M 0 0 L 0.984808 0.173648 A 1 1 0 0 1 0.979925 0.199368 Z" fill="#ff2a00" stroke="#ff2a00" stroke-width="0.01"/>
<path d="M 0 0 L 0.981627 0.190809 A 1 1 0 0 1 0.976296 0.216440 Z" fill="#ff2e00" stroke="#ff2e00" stroke-width="0.01"/>
<path d="M 0 0 L 0.978148 0.207912 A 1 1 0 0 1 0.972370 0.233445 Z" fill="#ff3200" stroke="#ff3200" stroke-width="0.01"/>
<path d="M 0 0 L 0.974370 0.224951 A 1 1 0 0 1 0.968148 0.250380 Z" fill="#ff3700" stroke="#ff3700" stroke-width="0.01"/>
<path d="M 0 0 L 0.970296 0.241922 A 1 1 0 0 1 0.963630 0.267238 Z" fill="#ff3b00" stroke="#ff3b00" stroke-width="0.01"/>
<path d="M 0 0 L 0.965926 0.258819 A 1 1 0 0 1 0.958820 0.284015 Z" fill="#ff3f00" stroke="#ff3f00" stroke-width="0.01"/>
<path d="M 0 0 L 0.961262 0.275637 A 1 1 0 0 1 0.953717 0.300706 Z" fill="#ff4300" stroke="#ff4300" stroke-width="0.01"/>
<path d="M 0 0 L 0.956305 0.292372 A 1 1 0 0 1 0.948324 0.317305 Z" fill="#ff4800" stroke="#ff4800" stroke-width="0.01"/>
<path d="M 0 0 L 0.951057 0.309017 A 1 1 0 0 1 0.942641 0.333807 Z" fill="#ff4c00" stroke="#ff4c00" stroke-width="0.01"/>
<path d="M 0 0 L 0.945519 0.325568 A 1 1 0 0 1 0.936672 0.350207 Z" fill="#ff5000" stroke="#ff5000" stroke-width="0.01"/>
<path d="M 0 0 L 0.939693 0.342020 A 1 1 0 0 1 0.930418 0.366501 Z" fill="#ff5400" stroke="#ff5400" stroke-width="0.01"/>
<path d="M 0 0 L 0.933580 0.358368 A 1 1 0 0 1 0.923880 0.382683 Z" fill="#ff5900" stroke="#ff5900" stroke-width="0.01"/>
<path d="M 0 0 L 0.927184 0.374607 A 1 1 0 0 1 0.917060 0.398749 Z" fill="#ff5d00" stroke="#ff5d00" stroke-width="0.01"/>
<path d="M 0 0 L 0.920505 0.390731 A 1 1 0 0 1 0.909961 0.414693 Z" fill="#ff6100" stroke="#ff6100" stroke-width="0.01"/>
<path d="M 0 0 L 0.913545 0.406737 A 1 1 0 0 1 0.902585 0.430511 Z" fill="#ff6600" stroke="#ff6600" stroke-width="0.01"/>
<path d="M 0 0 L 0.906308 0.422618 A 1 1 0 0 1 0.894934 0.446198 Z" fill="#ff6a00" stroke="#ff6a00" stroke-width="0.01"/>
<path d="M 0 0 L 0.898794 0.438371 A 1 1 0 0 1 0.887011 0.461749 Z" fill="#ff6e00" stroke="#ff6e00" stroke-width="0.01"/>
<path d="M 0 0 L 0.891007 0.453990 A 1 1 0 0 1 0.878817 0.477159 Z" fill="#ff7200" stroke="#ff7200" stroke-width="0.01"/>
<path d="M 0 0 L 0.882948 0.469472 A 1 1 0 0 1 0.870356 0.492424 Z" fill="#ff7700" stroke="#ff7700" stroke-width="0.01"/>
<path d="M 0 0 L 0.874620 0.484810 A 1 1 0 0 1 0.861629 0.507538 Z" fill="#ff7b00" stroke="#ff7b00" stroke-width="0.01"/>
<path d="M 0 0 L 0.866025 0.500000 A 1 1 0 0 1 0.852640 0.522499 Z" fill="#ff7f00" stroke="#ff7f00" stroke-width="0.01"/>
<path d="M 0 0 L 0.857167 0.515038 A 1 1 0 0 1 0.843391 0.537300 Z" fill="#ff8300" stroke="#ff8300" stroke-width="0.01"/>
<path d="M 0 0 L 0.848048 0.529919 A 1 1 0 0 1 0.833886 0.551937 Z" fill="#ff8800" stroke="#ff8800" stroke-width="0.01"/>
<path d="M 0 0 L 0.838671 0.544639 A 1 1 0 0 1 0.824126 0.566406 Z" fill="#ff8c00" stroke="#ff8c00" stroke-width="0.01"/>
<path d="M 0 0 L 0.829038 0.559193 A 1 1 0 0 1 0.814116 0.580703 Z" fill="#ff9000" stroke="#ff9000" stroke-width="0.01"/>
<path d="M 0 0 L 0.819152 0.573576 A 1 1 0 0 1 0.803857 0.594823 Z" fill="#ff9400" stroke="#ff9400" stroke-width="0.01"/>
<path d="M 0 0 L 0.809017 0.587785 A 1 1 0 0 1 0.793353 0.608761 Z" fill="#ff9900" stroke="#ff9900" stroke-width="0.01"/>
<path d="M 0 0 L 0.798636 0.601815 A 1 1 0 0 1 0.782608 0.622515 Z" fill="#ff9d00" stroke="#ff9d00" stroke-width="0.01"/>
<path d="M 0 0 L 0.788011 0.615661 A 1 1 0 0 1 0.771625 0.636078 Z" fill="#ffa100" stroke="#ffa100" stroke-width="0.01"/>
<path d="M 0 0 L 0.777146 0.629320 A 1 1 0 0 1 0.760406 0.649448 Z" fill="#ffa500" stroke="#ffa500" stroke-width="0.01"/>
<path d="M 0 0 L 0.766044 0.642788 A 1 1 0 0 1 0.748956 0.662620 Z" fill="#ffaa00" stroke="#ffaa00" stroke-width="0.01"/>
<path d="M 0 0 L 0.754710 0.656059 A 1 1 0 0 1 0.737277 0.675590 Z" fill="#ffae00" stroke="#ffae00" stroke-width="0.01"/>
<path d="M 0 0 L 0.743145 0.669131 A 1 1 0 0 1 0.725374 0.688355 Z" fill="#ffb200" stroke="#ffb200" stroke-width="0.01"/>
<path d="M 0 0 L 0.731354 0.681998 A 1 1 0 0 1 0.713250 0.700909 Z" fill="#ffb600" stroke="#ffb600" stroke-width="0.01"/>
<path d="M 0 0 L 0.719340 0.694658 A 1 1 0 0 1 0.700909 0.713250 Z" fill="#ffbb00" stroke="#ffbb00" stroke-width="0.01"/>
<path d="M 0 0 L 0.707107 0.707107 A 1 1 0 0 1 0.688355 0.725374 Z" fill="#ffbf00" stroke="#ffbf00" stroke-width="0.01"/>
<path d="M 0 0 L 0.694658 0.719340 A 1 1 0 0 1 0.675590 0.737277 Z" fill="#ffc300" stroke="#ffc300" stroke-width="0.01"/>
<path d="M 0 0 L 0.681998 0.731354 A 1 1 0 0 1 0.662620 0.748956 Z" fill="#ffc700" stroke="#ffc700" stroke-width="0.01"/>
<path d="M 0 0 L 0.669131 0.743145 A 1 1 0 0 1 0.649448 0.760406 Z" fill="#ffcc00" stroke="#ffcc00" stroke-width="0.01"/>
<path d="M 0 0 L 0.656059 0.754710 A 1 1 0 0 1 0.636078 0.771625 Z" fill="#ffd000" stroke="#ffd000" stroke-width="0.01"/>
<path d="M 0 0 L 0.642788 0.766044 A 1 1 0 0 1 0.622515 0.782608 Z" fill="#ffd400" stroke="#ffd400" stroke-width="0.01"/>
<path d="M 0 0 L 0.629320 0.777146 A 1 1 0 0 1 0.608761 0.793353 Z" fill="#ffd800" stroke="#ffd800" stroke-width="0.01"/>
<path d="M 0 0 L 0.615661 0.788011 A 1 1 0 0 1 0.594823 0.803857 Z" fill="#ffdc00" stroke="#ffdc00" stroke-width="0.01"/>
<path d="M 0 0 L 0.601815 0.798636 A 1 1 0 0 1 0.580703 0.814116 Z" fill="#ffe100" stroke="#ffe100" stroke-width="0.01"/>
<path d="M 0 0 L 0.587785 0.809017 A 1 1 0 0 1 0.566406 0.824126 Z" fill="#ffe500" stroke="#ffe500" stroke-width="0.01"/>
<path d="M 0 0 L 0.573576 0.819152 A 1 1 0 0 1 0.551937 0.833886 Z" fill="#ffe900" stroke="#ffe900" stroke-width="0.01"/>
<path d="M 0 0 L 0.559193 0.829038 A 1 1 0 0 1 0.537300 0.843391 Z" fill="#ffee00" stroke="#ffee00" stroke-width="0.01"/>
<path d="M 0 0 L 0.544639 0.838671 A 1 1 0 0 1 0.522499 0.852640 Z" fill="#fff200" stroke="#fff200" stroke-width="0.01"/>
<path d="M 0 0 L 0.529919 0.848048 A 1 1 0 0 1 0.507538 0.861629 Z" fill="#fff600" stroke="#fff600" stroke-width="0.01"/>
<path d="M 0 0 L 0.515038 0.857167 A 1 1 0 0 1 0.492424 0.870356 Z" fill="#fffa00" stroke="#fffa00" stroke-width="0.01"/>
<path d="M 0 0 L 0.500000 0.866025 A 1 1 0 0 1 0.477159 0.878817 Z" fill="#ffff00" stroke="#ffff00" stroke-width="0.01"/>
<path d="M 0 0 L 0.484810 0.874620 A 1 1 0 0 1 0.461749 0.887011 Z" fill="#faff00" stroke="#faff00" stroke-width="0.01"/>
<path d="M 0 0 L 0.469472 0.882948 A 1 1 0 0 1 0.446198 0.894934 Z" fill="#f6ff00" stroke="#f6ff00" stroke-width="0.01"/>
<path d="M 0 0 L 0.453990 0.891007 A 1 1 0 0 1 0.430511 0.902585 Z" fill="#f2ff00" stroke="#f2ff00" stroke-width="0.01"/>
<path d="M 0 0 L 0.438371 0.898794 A 1 1 0 0 1 0.414693 0.909961 Z" fill="#eeff00" stroke="#eeff00" stroke-width="0.01"/>
<path d="M 0 0 L 0.422618 0.906308 A 1 1 0 0 1 0.398749 0.917060 Z" fill="#e9ff00" stroke="#e9ff00" stroke-width="0.01"/>
<path d="M 0 0 L 0.406737 0.913545 A 1 1 0 0 1 0.382683 0.923880 Z" fill="#e5ff00" stroke="#e5ff00" stroke-width="0.01"/>
<path d="M 0 0 L 0.390731 0.920505 A 1 1 0 0 1 0.366501 0.930418 Z" fill="#e1ff00" stroke="#e1ff00" stroke-width="0.01"/>
<path d="M 0 0 L 0.374607 0.927184 A 1 1 0 0 1 0.350207 0.936672 Z" fill="#ddff00" stroke="#ddff00" stroke-width="0.01"/>
<path d="M 0 0 L 0.358368 0.933580 A 1 1 0 0 1 0.333807 0.942641 Z" fill="#d8ff00" stroke="#d8ff00" stroke-width="0.01"/>
<path d="M 0 0 L 0.342020 0.939693 A 1 1 0 0 1 0.317305 0.948324 Z" fill="#d4ff00" stroke="#d4ff00" stroke-width="0.01"/>
<path d="M 0 0 L 0.325568 0.945519 A 1 1 0 0 1 0.300706 0.953717 Z" fill="#d0ff00" stroke="#d0ff00" stroke-width="0.01"/>
<path d="M 0 0 L 0.309017 0.951057 A 1 1 0 0 1 0.284015 0.958820 Z" fill="#cbff00" stroke="#cbff00" stroke-width="0.01"/>
<path d="M 0 0 L 0.292372 0.956305 A 1 1 0 0 1 0.267238 0.963630 Z" fill="#c7ff00" stroke="#c7ff00" stroke-width="0.01"/>
<path d="M 0 0 L 0.275637 0.961262 A 1 1 0 0 1 0.250380 0.968148 Z" fill="#c3ff00" stroke="#c3ff00" stroke-width="0.01"/>
<path d="M 0 0 L 0.258819 0.965926 A 1 1 0 0 1 0.233445 0.972370 Z" fill="#bfff00" stroke="#bfff00" stroke-width="0.01"/>
<path d="M 0 0 L 0.241922 0.970296 A 1 1 0 0 1 0.216440 0.976296 Z" fill="#bbff00" stroke="#bbff00" stroke-width="0.01"/>
<path d="M 0 0 L 0.224951 0.974370 A 1 1 0 0 1 0.199368 0.979925 Z" fill="#b6ff00" stroke="#b6ff00" stroke-width="0.01"/>
<path d="M 0 0 L 0.207912 0.978148 A 1 1 0 0 1 0.182236 0.983255 Z" fill="#b2ff00" stroke="#b2ff00" stroke-width="0.01"/>
<path d="M 0 0 L 0.190809 0.981627 A 1 1 0 0 1 0.165048 0.986286 Z" fill="#aeff00" stroke="#aeff00" stroke-width="0.01"/>
<path d="M 0 0 L 0.173648 0.984808 A 1 1 0 0 1 0.147809 0.989016 Z" fill="#aaff00" stroke="#aaff00" stroke-width="0.01"/>
<path d="M 0 0 L 0.156434 0.987688 A 1 1 0 0 1 0.130526 0.991445 Z" fill="#a5ff00" stroke="#a5ff00" stroke-width="0.01"/>
<path d="M 0 0 L 0.139173 0.990268 A 1 1 0 0 1 0.113203 0.993572 Z" fill="#a1ff00" stroke="#a1ff00" stroke-width="0.01"/>
<path d="M 0 0 L 0.121869 0.992546 A 1 1 0 0 1 0.095846 0.995396 Z" fill="#9dff00" stroke="#9dff00" stroke-width="0.01"/>
<path d="M 0 0 L 0.104528 0.994522 A 1 1 0 0 1 0.078459 0.996917 Z" fill="#99ff00" stroke="#99ff00" stroke-width="0.01"/>
<path d="M 0 0 L 0.087156 0.996195 A 1 1 0 0 1 0.061049 0.998135 Z" fill="#94ff00" stroke="#94ff00" stroke-width="0.01"/>
<path d="M 0 0 L 0.069756 0.997564 A 1 1 0 0 1 0.043619 0.999048 Z" fill="#90ff00" stroke="#90ff00" stroke-width="0.01"/>
<path d="M 0 0 L 0.052336 0.998630 A 1 1 0 0 1 0.026177 0.999657 Z" fill="#8cff00" stroke="#8cff00" stroke-width="0.01"/>
<path d="M 0 0 L 0.034899 0.999391 A 1 1 0 0 1 0.008727 0.999962 Z" fill="#88ff00" stroke="#88ff00" stroke-width="0.01"/>
<path d="M 0 0 L 0.017452 0.999848 A 1 1 0 0 1 -0.008727 0.999962 Z" fill="#83ff00" stroke="#83ff00" stroke-width="0.01"/>
<path d="M 0 0 L 0.000000 1.000000 A 1 1 0 0 1 -0.026177 0.999657 Z" fill="#7fff00" stroke="#7fff00" stroke-width="0.01"/>
<path d="M 0 0 L -0.017452 0.999848 A 1 1 0 0 1 -0.043619 0.999048 Z" fill="#7bff00" stroke="#7bff00" stroke-width="0.01"/>
<path d="M 0 0 L -0.034899 0.999391 A 1 1 0 0 1 -0.061049 0.998135 Z" fill="#77ff00" stroke="#77ff00" stroke-width="0.01"/>
<path d="M 0 0 L -0.052336 0.998630 A 1 1 0 0 1 -0.078459 0.996917 Z" fill="#72ff00" stroke="#72ff00" stroke-width="0.01"/>
<path d="M 0 0 L -0.069756 0.997564 A 1 1 0 0 1 -0.095846 0.995396 Z" fill="#6eff00" stroke="#6eff00" stroke-width="0.01"/>
<path d="M 0 0 L -0.087156 0.996195 A 1 1 0 0 1 -0.113203 0.993572 Z" fill="#6aff00" stroke="#6aff00" stroke-width="0.01"/>
<path d="M 0 0 L -0.104528 0.994522 A 1 1 0 0 1 -0.130526 0.991445 Z" fill="#65ff00" stroke="#65ff00" stroke-width="0.01"/>
<path d="M 0 0 L -0.121869 0.992546 A 1 1 0 0 1 -0.147809 0.989016 Z" fill="#61ff00" stroke="#61ff00" stroke-width="0.01"/>
<path d="M 0 0 L -0.139173 0.990268 A 1 1 0 0 1 -0.165048 0.986286 Z" fill="#5dff00" stroke="#5dff00" stroke-width="0.01"/>
<path d="M 0 0 L -0.156434 0.987688 A 1 1 0 0 1 -0.182236 0.983255 Z" fill="#59ff00" stroke="#59ff00" stroke-width="0.01"/>
<path d="M 0 0 L -0.173648 0.984808 A 1 1 0 0 1 -0.199368 0.979925 Z" fill="#54ff00" stroke="#54ff00" stroke-width="0.01"/>
<path d="M 0 0 L -0.190809 0.981627 A 1 1 0 0 1 -0.216440 0.976296 Z" fill="#50ff00" stroke="#50ff00" stroke-width="0.01"/>
<path d="M 0 0 L -0.207912 0.978148 A 1 1 0 0 1 -0.233445 0.972370 Z" fill="#4cff00" stroke="#4cff00" stroke-width="0.01"/>
<path d="M 0 0 L -0.224951 0.974370 A 1 1 0 0 1 -0.250380 0.968148 Z" fill="#48ff00" stroke="#48ff00" stroke-width="0.01"/>
<path d="M 0 0 L -0.241922 0.970296 A 1 1 0 0 1 -0.267238 0.963630 Z" fill="#44ff00" stroke="#44ff00" stroke-width="0.01"/>
<path d="M 0 0 L -0.258819 0.965926 A 1 1 0 0 1 -0.284015 0.958820 Z" fill="#3fff00" stroke="#3fff00" stroke-width="0.01"/>
<path d="M 0 0 L -0.275637 0.961262 A 1 1 0 0 1 -0.300706 0.953717 Z" fill="#3bff00" stroke="#3bff00" stroke-width="0.01"/>
<path d="M 0 0 L -0.292372 0.956305 A 1 1 0 0 1 -0.317305 0.948324 Z" fill="#37ff00" stroke="#37ff00" stroke-width="0.01"/>
<path d="M 0 0 L -0.309017 0.951057 A 1 1 0 0 1 -0.333807 0.942641 Z" fill="#33ff00" stroke="#33ff00" stroke-width="0.01"/>
<path d="M 0 0 L -0.325568 0.945519 A 1 1 0 0 1 -0.350207 0.936672 Z" fill="#2eff00" stroke="#2eff00" stroke-width="0.01"/>
<path d="M 0 0 L -0.342020 0.939693 A 1 1 0 0 1 -0.366501 0.930418 Z" fill="#2aff00" stroke="#2aff00" stroke-width="0.01"/>
<path d="M 0 0 L -0.358368 0.933580 A 1 1 0 0 1 -0.382683 0.923880 Z" fill="#26ff00" stroke="#26ff00" stroke-width="0.01"/>
<path d="M 0 0 L -0.374607 0.927184 A 1 1 0 0 1 -0.398749 0.917060 Z" fill="#21ff00" stroke="#21ff00" stroke-width="0.01"/>
<path d="M 0 0 L -0.390731 0.920505 A 1 1 0 0 1 -0.414693 0.909961 Z" fill="#1dff00" stroke="#1dff00" stroke-width="0.01"/>
<path d="M 0 0 L -0.406737 0.913545 A 1 1 0 0 1 -0.430511 0.902585 Z" fill="#19ff00" stroke="#19ff00" stroke-width="0.01"/>
<path d="M 0 0 L -0.422618 0.906308 A 1 1 0 0 1 -0.446198 0.894934 Z" fill="#15ff00" stroke="#15ff00" stroke-width="0.01"/>
<path d="M 0 0 L -0.438371 0.898794 A 1 1 0 0 1 -0.461749 0.887011 Z" fill="#10ff00" stroke="#10ff00" stroke-width="0.01"/>
<path d="M 0 0 L -0.453990 0.891007 A 1 1 0 0 1 -0.477159 0.878817 Z" fill="#0cff00" stroke="#0cff00" stroke-width="0.01"/>
<path d="M 0 0 L -0.469472 0.882948 A 1 1 0 0 1 -0.492424 0.870356 Z" fill="#08ff00" stroke="#08ff00" stroke-width="0.01"/>
<path d="M 0 0 L -0.484810 0.874620 A 1 1 0 0 1 -0.507538 0.861629 Z" fill="#04ff00" stroke="#04ff00" stroke-width="0.01"/>
<path d="M 0 0 L -0.500000 0.866025 A 1 1 0 0 1 -0.522499 0.852640 Z" fill="#00ff00" stroke="#00ff00" stroke-width="0.01"/>
<path d="M 0 0 L -0.515038 0.857167 A 1 1 0 0 1 -0.537300 0.843391 Z" fill="#00ff04" stroke="#00ff04" stroke-width="0.01"/>
<path d="M 0 0 L -0.529919 0.848048 A 1 1 0 0 1 -0.551937 0.833886 Z" fill="#00ff08" stroke="#00ff08" stroke-width="0.01"/>
<path d="M 0 0 L -0.544639 0.838671 A 1 1 0 0 1 -0.566406 0.824126 Z" fill="#00ff0c" stroke="#00ff0c" stroke-width="0.01"/>
<path d="M 0 0 L -0.559193 0.829038 A 1 1 0 0 1 -0.580703 0.814116 Z" fill="#00ff10" stroke="#00ff10" stroke-width="0.01"/>
<path d="M 0 0 L -0.573576 0.819152 A 1 1 0 0 1 -0.594823 0.803857 Z" fill="#00ff15" stroke="#00ff15" stroke-width="0.01"/>
<path d="M 0 0 L -0.587785 0.809017 A 1 1 0 0 1 -0.608761 0.793353 Z" fill="#00ff19" stroke="#00ff19" stroke-width="0.01"/>
<path d="M 0 0 L -0.601815 0.798636 A 1 1 0 0 1 -0.622515 0.782608 Z" fill="#00ff1d" stroke="#00ff1d" stroke-width="0.01"/>
<path d="M 0 0 L -0.615661 0.788011 A 1 1 0 0 1 -0.636078 0.771625 Z" fill="#00ff21" stroke="#00ff21" stroke-width="0.01"/>
<path d="M 0 0 L -0.629320 0.777146 A 1 1 0 0 1 -0.649448 0.760406 Z" fill="#00ff26" stroke="#00ff26" stroke-width="0.01"/>
<path d="M 0 0 L -0.642788 0.766044 A 1 1 0 0 1 -0.662620 0.748956 Z" fill="#00ff2a" stroke="#00ff2a" stroke-width="0.01"/>
<path d="M 0 0 L -0.656059 0.754710 A 1 1 0 0 1 -0.675590 0.737277 Z" fill="#00ff2e" stroke="#00ff2e" stroke-width="0.01"/>
<path d="M 0 0 L -0.669131 0.743145 A 1 1 0 0 1 -0.688355 0.725374 Z" fill="#00ff32" stroke="#00ff32" stroke-width="0.01"/>
<path d="M 0 0 L -0.681998 0.731354 A 1 1 0 0 1 -0.700909 0.713250 Z" fill="#00ff37" stroke="#00ff37" stroke-width="0.01"/>
<path d="M 0 0 L -0.694658 0.719340 A 1 1 0 0 1 -0.713250 0.700909 Z" fill="#00ff3b" stroke="#00ff3b" stroke-width="0.01"/>
<path d="M 0 0 L -0.707107 0.707107 A 1 1 0 0 1 -0.725374 0.688355 Z" fill="#00ff3f" stroke="#00ff3f" stroke-width="0.01"/>
<path d="M 0 0 L -0.719340 0.694658 A 1 1 0 0 1 -0.737277 0.675590 Z" fill="#00ff43" stroke="#00ff43" stroke-width="0.01"/>
<path d="M 0 0 L -0.731354 0.681998 A 1 1 0 0 1 -0.748956 0.662620 Z" fill="#00ff48" stroke="#00ff48" stroke-width="0.01"/>
<path d="M 0 0 L -0.743145 0.669131 A 1 1 0 0 1 -0.760406 0.649448 Z" fill="#00ff4c" stroke="#00ff4c" stroke-width="0.01"/>
<path d="M 0 0 L -0.754710 0.656059 A 1 1 0 0 1 -0.771625 0.636078 Z" fill="#00ff50" stroke="#00ff50" stroke-width="0.01"/>
<path d="M 0 0 L -0.766044 0.642788 A 1 1 0 0 1 -0.782608 0.622515 Z" fill="#00ff55" stroke="#00ff55" stroke-width="0.01"/>
<path d="M 0 0 L -0.777146 0.629320 A 1 1 0 0 1 -0.793353 0.608761 Z" fill="#00ff59" stroke="#00ff59" stroke-width="0.01"/>
<path d="M 0 0 L -0.788011 0.615661 A 1 1 0 0 1 -0.803857 0.594823 Z" fill="#00ff5d" stroke="#00ff5d" stroke-width="0.01"/>
<path d="M 0 0 L -0.798636 0.601815 A 1 1 0 0 1 -0.814116 0.580703 Z" fill="#00ff61" stroke="#00ff61" stroke-width="0.01"/>
<path d="M 0 0 L -0.809017 0.587785 A 1 1 0 0 1 -0.824126 0.566406 Z" fill="#00ff66" stroke="#00ff66" stroke-width="0.01"/>
<path d="M 0 0 L -0.819152 0.573576 A 1 1 0 0 1 -0.833886 0.551937 Z" fill="#00ff6a" stroke="#00ff6a" stroke-width="0.01"/>
<path d="M 0 0 L -0.829038 0.559193 A 1 1 0 0 1 -0.843391 0.537300 Z" fill="#00ff6e" stroke="#00ff6e" stroke-width="0.01"/>
<path d="M 0 0 L -0.838671 0.544639 A 1 1 0 0 1 -0.852640 0.522499 Z" fill="#00ff72" stroke="#00ff72" stroke-width="0.01"/>
<path d="M 0 0 L -0.848048 0.529919 A 1 1 0 0 1 -0.861629 0.507538 Z" fill="#00ff77" stroke="#00ff77" stroke-width="0.01"/>
<path d="M 0 0 L -0.857167 0.515038 A 1 1 0 0 1 -0.870356 0.492424 Z" fill="#00ff7b" stroke="#00ff7b" stroke-width="0.01"/>
<path d="M 0 0 L -0.866025 0.500000 A 1 1 0 0 1 -0.878817 0.477159 Z" fill="#00ff7f" stroke="#00ff7f" stroke-width="0.01"/>
<path d="M 0 0 L -0.874620 0.484810 A 1 1 0 0 1 -0.887011 0.461749 Z" fill="#00ff83" stroke="#00ff83" stroke-width="0.01"/>
<path d="M 0 0 L -0.882948 0.469472 A 1 1 0 0 1 -0.894934 0.446198 Z" fill="#00ff87" stroke="#00ff87" stroke-width="0.01"/>
<path d="M 0 0 L -0.891007 0.453990 A 1 1 0 0 1 -0.902585 0.430511 Z" fill="#00ff8c" stroke="#00ff8c" stroke-width="0.01"/>
<path d="M 0 0 L -0.898794 0.438371 A 1 1 0 0 1 -0.909961 0.414693 Z" fill="#00ff90" stroke="#00ff90" stroke-width="0.01"/>
<path d="M 0 0 L -0.906308 0.422618 A 1 1 0 0 1 -0.917060 0.398749 Z" fill="#00ff94" stroke="#00ff94" stroke-width="0.01"/>
<path d="M 0 0 L -0.913545 0.406737 A 1 1 0 0 1 -0.923880 0.382683 Z" fill="#00ff99" stroke="#00ff99" stroke-width="0.01"/>
<path d="M 0 0 L -0.920505 0.390731 A 1 1 0 0 1 -0.930418 0.366501 Z" fill="#00ff9d" stroke="#00ff9d" stroke-width="0.01"/>
<path d="M 0 0 L -0.927184 0.374607 A 1 1 0 0 1 -0.936672 0.350207 Z" fill="#00ffa1" stroke="#00ffa1" stroke-width="0.01"/>
<path d="M 0 0 L -0.933580 0.358368 A 1 1 0 0 1 -0.942641 0.333807 Z" fill="#00ffa5" stroke="#00ffa5" stroke-width="0.01"/>
<path d="M 0 0 L -0.939693 0.342020 A 1 1 0 0 1 -0.948324 0.317305 Z" fill="#00ffa9" stroke="#00ffa9" stroke-width="0.01"/>
<path d="M 0 0 L -0.945519 0.325568 A 1 1 0 0 1 -0.953717 0.300706 Z" fill="#00ffae" stroke="#00ffae" stroke-width="0.01"/>
<path d="M 0 0 L -0.951057 0.309017 A 1 1 0 0 1 -0.958820 0.284015 Z" fill="#00ffb2" stroke="#00ffb2" stroke-width="0.01"/>
<path d="M 0 0 L -0.956305 0.292372 A 1 1 0 0 1 -0.963630 0.267238 Z" fill="#00ffb6" stroke="#00ffb6" stroke-width="0.01"/>
<path d="M 0 0 L -0.961262 0.275637 A 1 1 0 0 1 -0.968148 0.250380 Z" fill="#00ffbb" stroke="#00ffbb" stroke-width="0.01"/>
<path d="M 0 0 L -0.965926 0.258819 A 1 1 0 0 1 -0.972370 0.233445 Z" fill="#00ffbf" stroke="#00ffbf" stroke-width="0.01"/>
<path d="M 0 0 L -0.970296 0.241922 A 1 1 0 0 1 -0.976296 0.216440 Z" fill="#00ffc3" stroke="#00ffc3" stroke-width="0.01"/>
<path d="M 0 0 L -0.974370 0.224951 A 1 1 0 0 1 -0.979925 0.199368 Z" fill="#00ffc7" stroke="#00ffc7" stroke-width="0.01"/>
<path d="M 0 0 L -0.978148 0.207912 A 1 1 0 0 1 -0.983255 0.182236 Z" fill="#00ffcb" stroke="#00ffcb" stroke-width="0.01"/>
<path d="M 0 0 L -0.981627 0.190809 A 1 1 0 0 1 -0.986286 0.165048 Z" fill="#00ffd0" stroke="#00ffd0" stroke-width="0.01"/>
<path d="M 0 0 L -0.984808 0.173648 A 1 1 0 0 1 -0.989016 0.147809 Z" fill="#00ffd4" stroke="#00ffd4" stroke-width="0.01"/>
<path d="M 0 0 L -0.987688 0.156434 A 1 1 0 0 1 -0.991445 0.130526 Z" fill="#00ffd8" stroke="#00ffd8" stroke-width="0.01"/>
<path d="M 0 0 L -0.990268 0.139173 A 1 1 0 0 1 -0.993572 0.113203 Z" fill="#00ffdd" stroke="#00ffdd" stroke-width="0.01"/>
<path d="M 0 0 L -0.992546 0.121869 A 1 1 0 0 1 -0.995396 0.095846 Z" fill="#00ffe1" stroke="#00ffe1" stroke-width="0.01"/>
<path d="M 0 0 L -0.994522 0.104528 A 1 1 0 0 1 -0.996917 0.078459 Z" fill="#00ffe5" stroke="#00ffe5" stroke-width="0.01"/>
<path d="M 0 0 L -0.996195 0.087156 A 1 1 0 0 1 -0.998135 0.061049 Z" fill="#00ffe9" stroke="#00ffe9" stroke-width="0.01"/>
<path d="M 0 0 L -0.997564 0.069756 A 1 1 0 0 1 -0.999048 0.043619 Z" fill="#00ffed" stroke="#00ffed" stroke-width="0.01"/>
<path d="M 0 0 L -0.998630 0.052336 A 1 1 0 0 1 -0.999657 0.026177 Z" fill="#00fff2" stroke="#00fff2" stroke-width="0.01"/>
<path d="M 0 0 L -0.999391 0.034899 A 1 1 0 0 1 -0.999962 0.008727 Z" fill="#00fff6" stroke="#00fff6" stroke-width="0.01"/>
<path d="M 0 0 L -0.999848 0.017452 A 1 1 0 0 1 -0.999962 -0.008727 Z" fill="#00fffa" stroke="#00fffa" stroke-width="0.01"/>
<path d="M 0 0 L -1.000000 0.000000 A 1 1 0 0 1 -0.999657 -0.026177 Z" fill="#00ffff" stroke="#00ffff" stroke-width="0.01"/>
<path d="M 0 0 L -0.999848 -0.017452 A 1 1 0 0 1 -0.999048 -0.043619 Z" fill="#00faff" stroke="#00faff" stroke-width="0.01"/>
<path d="M 0 0 L -0.999391 -0.034899 A 1 1 0 0 1 -0.998135 -0.061049 Z" fill="#00f6ff" stroke="#00f6ff" stroke-width="0.01"/>
<path d="M 0 0 L -0.998630 -0.052336 A 1 1 0 0 1 -0.996917 -0.078459 Z" fill="#00f2ff" stroke="#00f2ff" stroke-width="0.01"/>
<path d="M 0 0 L -0.997564 -0.069756 A 1 1 0 0 1 -0.995396 -0.095846 Z" fill="#00eeff" stroke="#00eeff" stroke-width="0.01"/>
<path d="M 0 0 L -0.996195 -0.087156 A 1 1 0 0 1 -0.993572 -0.113203 Z" fill="#00e9ff" stroke="#00e9ff" stroke-width="0.01"/>
<path d="M 0 0 L -0.994522 -0.104528 A 1 1 0 0 1 -0.991445 -0.130526 Z" fill="#00e5ff" stroke="#00e5ff" stroke-width="0.01"/>
<path d="M 0 0 L -0.992546 -0.121869 A 1 1 0 0 1 -0.989016 -0.147809 Z" fill="#00e1ff" stroke="#00e1ff" stroke-width="0.01"/>
<path d="M 0 0 L -0.990268 -0.139173 A 1 1 0 0 1 -0.986286 -0.165048 Z" fill="#00dcff" stroke="#00dcff" stroke-width="0.01"/>
<path d="M 0 0 L -0.987688 -0.156434 A 1 1 0 0 1 -0.983255 -0.182236 Z" fill="#00d8ff" stroke="#00d8ff" stroke-width="0.01"/>
<path d="M 0 0 L -0.984808 -0.173648 A 1 1 0 0 1 -0.979925 -0.199368 Z" fill="#00d4ff" stroke="#00d4ff" stroke-width="0.01"/>
<path d="M 0 0 L -0.981627 -0.190809 A 1 1 0 0 1 -0.976296 -0.216440 Z" fill="#00d0ff" stroke="#00d0ff" stroke-width="0.01"/>
<path d="M 0 0 L -0.978148 -0.207912 A 1 1 0 0 1 -0.972370 -0.233445 Z" fill="#00cbff" stroke="#00cbff" stroke-width="0.01"/>
<path d="M 0 0 L -0.974370 -0.224951 A 1 1 0 0 1 -0.968148 -0.250380 Z" fill="#00c7ff" stroke="#00c7ff" stroke-width="0.01"/>
<path d="M 0 0 L -0.970296 -0.241922 A 1 1 0 0 1 -0.963630 -0.267238 Z" fill="#00c3ff" stroke="#00c3ff" stroke-width="0.01"/>
<path d="M 0 0 L -0.965926 -0.258819 A 1 1 0 0 1 -0.958820 -0.284015 Z" fill="#00bfff" stroke="#00bfff" stroke-width="0.01"/>
<path d="M 0 0 L -0.961262 -0.275637 A 1 1 0 0 1 -0.953717 -0.300706 Z" fill="#00bbff" stroke="#00bbff" stroke-width="0.01"/>
<path d="M 0 0 L -0.956305 -0.292372 A 1 1 0 0 1 -0.948324 -0.317305 Z" fill="#00b6ff" stroke="#00b6ff" stroke-width="0.01"/>
<path d="M 0 0 L -0.951057 -0.309017 A 1 1 0 0 1 -0.942641 -0.333807 Z" fill="#00b2ff" stroke="#00b2ff" stroke-width="0.01"/>
<path d="M 0 0 L -0.945519 -0.325568 A 1 1 0 0 1 -0.936672 -0.350207 Z" fill="#00aeff" stroke="#00aeff" stroke-width="0.01"/>
<path d="M 0 0 L -0.939693 -0.342020 A 1 1 0 0 1 -0.930418 -0.366501 Z" fill="#00a9ff" stroke="#00a9ff" stroke-width="0.01"/>
<path d="M 0 0 L -0.933580 -0.358368 A 1 1 0 0 1 -0.923880 -0.382683 Z" fill="#00a5ff" stroke="#00a5ff" stroke-width="0.01"/>
<path d="M 0 0 L -0.927184 -0.374607 A 1 1 0 0 1 -0.917060 -0.398749 Z" fill="#00a1ff" stroke="#00a1ff" stroke-width="0.01"/>
<path d="M 0 0 L -0.920505 -0.390731 A 1 1 0 0 1 -0.909961 -0.414693 Z" fill="#009dff" stroke="#009dff" stroke-width="0.01"/>
<path d="M 0 0 L -0.913545 -0.406737 A 1 1 0 0 1 -0.902585 -0.430511 Z" fill="#0099ff" stroke="#0099ff" stroke-width="0.01"/>
<path d="M 0 0 L -0.906308 -0.422618 A 1 1 0 0 1 -0.894934 -0.446198 Z" fill="#0094ff" stroke="#0094ff" stroke-width="0.01"/>
<path d="M 0 0 L -0.898794 -0.438371 A 1 1 0 0 1 -0.887011 -0.461749 Z" fill="#0090ff" stroke="#0090ff" stroke-width="0.01"/>
<path d="M 0 0 L -0.891007 -0.453990 A 1 1 0 0 1 -0.878817 -0.477159 Z" fill="#008cff" stroke="#008cff" stroke-width="0.01"/>
<path d="M 0 0 L -0.882948 -0.469472 A 1 1 0 0 1 -0.870356 -0.492424 Z" fill="#0088ff" stroke="#0088ff" stroke-width="0.01"/>
<path d="M 0 0 L -0.874620 -0.484810 A 1 1 0 0 1 -0.861629 -0.507538 Z" fill="#0083ff" stroke="#0083ff" stroke-width="0.01"/>
<path d="M 0 0 L -0.866025 -0.500000 A 1 1 0 0 1 -0.852640 -0.522499 Z" fill="#007fff" stroke="#007fff" stroke-width="0.01"/>
<path d="M 0 0 L -0.857167 -0.515038 A 1 1 0 0 1 -0.843391 -0.537300 Z" fill="#007bff" stroke="#007bff" stroke-width="0.01"/>
<path d="M 0 0 L -0.848048 -0.529919 A 1 1 0 0 1 -0.833886 -0.551937 Z" fill="#0077ff" stroke="#0077ff" stroke-width="0.01"/>
<path d="M 0 0 L -0.838671 -0.544639 A 1 1 0 0 1 -0.824126 -0.566406 Z" fill="#0072ff" stroke="#0072ff" stroke-width="0.01"/>
<path d="M 0 0 L -0.829038 -0.559193 A 1 1 0 0 1 -0.814116 -0.580703 Z" fill="#006eff" stroke="#006eff" stroke-width="0.01"/>
<path d="M 0 0 L -0.819152 -0.573576 A 1 1 0 0 1 -0.803857 -0.594823 Z" fill="#006aff" stroke="#006aff" stroke-width="0.01"/>
<path d="M 0 0 L -0.809017 -0.587785 A 1 1 0 0 1 -0.793353 -0.608761 Z" fill="#0066ff" stroke="#0066ff" stroke-width="0.01"/>
<path d="M 0 0 L -0.798636 -0.601815 A 1 1 0 0 1 -0.782608 -0.622515 Z" fill="#0061ff" stroke="#0061ff" stroke-width="0.01"/>
<path d="M 0 0 L -0.788011 -0.615661 A 1 1 0 0 1 -0.771625 -0.636078 Z" fill="#005dff" stroke="#005dff" stroke-width="0.01"/>
<path d="M 0 0 L -0.777146 -0.629320 A 1 1 0 0 1 -0.760406 -0.649448 Z" fill="#0059ff" stroke="#0059ff" stroke-width="0.01"/>
<path d="M 0 0 L -0.766044 -0.642788 A 1 1 0 0 1 -0.748956 -0.662620 Z" fill="#0054ff" stroke="#0054ff" stroke-width="0.01"/>
<path d="M 0 0 L -0.754710 -0.656059 A 1 1 0 0 1 -0.737277 -0.675590 Z" fill="#0050ff" stroke="#0050ff" stroke-width="0.01"/>
<path d="M 0 0 L -0.743145 -0.669131 A 1 1 0 0 1 -0.725374 -0.688355 Z" fill="#004cff" stroke="#004cff" stroke-width="0.01"/>
<path d="M 0 0 L -0.731354 -0.681998 A 1 1 0 0 1 -0.713250 -0.700909 Z" fill="#0048ff" stroke="#0048ff" stroke-width="0.01"/>
<path d="M 0 0 L -0.719340 -0.694658 A 1 1 0 0 1 -0.700909 -0.713250 Z" fill="#0043ff" stroke="#0043ff" stroke-width="0.01"/>
<path d="M 0 0 L -0.707107 -0.707107 A 1 1 0 0 1 -0.688355 -0.725374 Z" fill="#003fff" stroke="#003fff" stroke-width="0.01"/>
<path d="M 0 0 L -0.694658 -0.719340 A 1 1 0 0 1 -0.675590 -0.737277 Z" fill="#003bff" stroke="#003bff" stroke-width="0.01"/>
<path d="M 0 0 L -0.681998 -0.731354 A 1 1 0 0 1 -0.662620 -0.748956 Z" fill="#0037ff" stroke="#0037ff" stroke-width="0.01"/>
<path d="M 0 0 L -0.669131 -0.743145 A 1 1 0 0 1 -0.649448 -0.760406 Z" fill="#0033ff" stroke="#0033ff" stroke-width="0.01"/>
<path d="M 0 0 L -0.656059 -0.754710 A 1 1 0 0 1 -0.636078 -0.771625 Z" fill="#002eff" stroke="#002eff" stroke-width="0.01"/>
<path d="M 0 0 L -0.642788 -0.766044 A 1 1 0 0 1 -0.622515 -0.782608 Z" fill="#002aff" stroke="#002aff" stroke-width="0.01"/>
<path d="M 0 0 L -0.629320 -0.777146 A 1 1 0 0 1 -0.608761 -0.793353 Z" fill="#0026ff" stroke="#0026ff" stroke-width="0.01"/>
<path d="M 0 0 L -0.615661 -0.788011 A 1 1 0 0 1 -0.594823 -0.803857 Z" fill="#0021ff" stroke="#0021ff" stroke-width="0.01"/>
<path d="M 0 0 L -0.601815 -0.798636 A 1 1 0 0 1 -0.580703 -0.814116 Z" fill="#001dff" stroke="#001dff" stroke-width="0.01"/>
<path d="M 0 0 L -0.587785 -0.809017 A 1 1 0 0 1 -0.566406 -0.824126 Z" fill="#0019ff" stroke="#0019ff" stroke-width="0.01"/>
<path d="M 0 0 L -0.573576 -0.819152 A 1 1 0 0 1 -0.551937 -0.833886 Z" fill="#0015ff" stroke="#0015ff" stroke-width="0.01"/>
<path d="M 0 0 L -0.559193 -0.829038 A 1 1 0 0 1 -0.537300 -0.843391 Z" fill="#0010ff" stroke="#0010ff" stroke-width="0.01"/>
<path d="M 0 0 L -0.544639 -0.838671 A 1 1 0 0 1 -0.522499 -0.852640 Z" fill="#000cff" stroke="#000cff" stroke-width="0.01"/>
<path d="M 0 0 L -0.529919 -0.848048 A 1 1 0 0 1 -0.507538 -0.861629 Z" fill="#0008ff" stroke="#0008ff" stroke-width="0.01"/>
<path d="M 0 0 L -0.515038 -0.857167 A 1 1 0 0 1 -0.492424 -0.870356 Z" fill="#0004ff" stroke="#0004ff" stroke-width="0.01"/>
<path d="M 0 0 L -0.500000 -0.866025 A 1 1 0 0 1 -0.477159 -0.878817 Z" fill="#0000ff" stroke="#0000ff" stroke-width="0.01"/>
<path d="M 0 0 L -0.484810 -0.874620 A 1 1 0 0 1 -0.461749 -0.887011 Z" fill="#0400ff" stroke="#0400ff" stroke-width="0.01"/>
<path d="M 0 0 L -0.469472 -0.882948 A 1 1 0 0 1 -0.446198 -0.894934 Z" fill="#0800ff" stroke="#0800ff" stroke-width="0.01"/>
<path d="M 0 0 L -0.453990 -0.891007 A 1 1 0 0 1 -0.430511 -0.902585 Z" fill="#0c00ff" stroke="#0c00ff" stroke-width="0.01"/>
<path d="M 0 0 L -0.438371 -0.898794 A 1 1 0 0 1 -0.414693 -0.909961 Z" fill="#1000ff" stroke="#1000ff" stroke-width="0.01"/>
<path d="M 0 0 L -0.422618 -0.906308 A 1 1 0 0 1 -0.398749 -0.917060 Z" fill="#1500ff" stroke="#1500ff" stroke-width="0.01"/>
<path d="M 0 0 L -0.406737 -0.913545 A 1 1 0 0 1 -0.382683 -0.923880 Z" fill="#1900ff" stroke="#1900ff" stroke-width="0.01"/>
<path d="M 0 0 L -0.390731 -0.920505 A 1 1 0 0 1 -0.366501 -0.930418 Z" fill="#1d00ff" stroke="#1d00ff" stroke-width="0.01"/>
<path d="M 0 0 L -0.374607 -0.927184 A 1 1 0 0 1 -0.350207 -0.936672 Z" fill="#2100ff" stroke="#2100ff" stroke-width="0.01"/>
<path d="M 0 0 L -0.358368 -0.933580 A 1 1 0 0 1 -0.333807 -0.942641 Z" fill="#2600ff" stroke="#2600ff" stroke-width="0.01"/>
<path d="M 0 0 L -0.342020 -0.939693 A 1 1 0 0 1 -0.317305 -0.948324 Z" fill="#2a00ff" stroke="#2a00ff" stroke-width="0.01"/>
<path d="M 0 0 L -0.325568 -0.945519 A 1 1 0 0 1 -0.300706 -0.953717 Z" fill="#2e00ff" stroke="#2e00ff" stroke-width="0.01"/>
<path d="M 0 0 L -0.309017 -0.951057 A 1 1 0 0 1 -0.284015 -0.958820 Z" fill="#3200ff" stroke="#3200ff" stroke-width="0.01"/>
<path d="M 0 0 L -0.292372 -0.956305 A 1 1 0 0 1 -0.267238 -0.963630 Z" fill="#3700ff" stroke="#3700ff" stroke-width="0.01"/>
<path d="M 0 0 L -0.275637 -0.961262 A 1 1 0 0 1 -0.250380 -0.968148 Z" fill="#3b00ff" stroke="#3b00ff" stroke-width="0.01"/>
<path d="M 0 0 L -0.258819 -0.965926 A 1 1 0 0 1 -0.233445 -0.972370 Z" fill="#3f00ff" stroke="#3f00ff" stroke-width="0.01"/>
<path d="M 0 0 L -0.241922 -0.970296 A 1 1 0 0 1 -0.216440 -0.976296 Z" fill="#4300ff" stroke="#4300ff" stroke-width="0.01"/>
<path d="M 0 0 L -0.224951 -0.974370 A 1 1 0 0 1 -0.199368 -0.979925 Z" fill="#4800ff" stroke="#4800ff" stroke-width="0.01"/>
<path d="M 0 0 L -0.207912 -0.978148 A 1 1 0 0 1 -0.182236 -0.983255 Z" fill="#4c00ff" stroke="#4c00ff" stroke-width="0.01"/>
<path d="M 0 0 L -0.190809 -0.981627 A 1 1 0 0 1 -0.165048 -0.986286 Z" fill="#5000ff" stroke="#5000ff" stroke-width="0.01"/>
<path d="M 0 0 L -0.173648 -0.984808 A 1 1 0 0 1 -0.147809 -0.989016 Z" fill="#5400ff" stroke="#5400ff" stroke-width="0.01"/>
<path d="M 0 0 L -0.156434 -0.987688 A 1 1 0 0 1 -0.130526 -0.991445 Z" fill="#5900ff" stroke="#5900ff" stroke-width="0.01"/>
<path d="M 0 0 L -0.139173 -0.990268 A 1 1 0 0 1 -0.113203 -0.993572 Z" fill="#5d00ff" stroke="#5d00ff" stroke-width="0.01"/>
<path d="M 0 0 L -0.121869 -0.992546 A 1 1 0 0 1 -0.095846 -0.995396 Z" fill="#6100ff" stroke="#6100ff" stroke-width="0.01"/>
<path d="M 0 0 L -0.104528 -0.994522 A 1 1 0 0 1 -0.078459 -0.996917 Z" fill="#6500ff" stroke="#6500ff" stroke-width="0.01"/>
<path d="M 0 0 L -0.087156 -0.996195 A 1 1 0 0 1 -0.061049 -0.998135 Z" fill="#6a00ff" stroke="#6a00ff" stroke-width="0.01"/>
<path d="M 0 0 L -0.069756 -0.997564 A 1 1 0 0 1 -0.043619 -0.999048 Z" fill="#6e00ff" stroke="#6e00ff" stroke-width="0.01"/>
<path d="M 0 0 L -0.052336 -0.998630 A 1 1 0 0 1 -0.026177 -0.999657 Z" fill="#7200ff" stroke="#7200ff" stroke-width="0.01"/>
<path d="M 0 0 L -0.034899 -0.999391 A 1 1 0 0 1 -0.008727 -0.999962 Z" fill="#7700ff" stroke="#7700ff" stroke-width="0.01"/>
<path d="M 0 0 L -0.017452 -0.999848 A 1 1 0 0 1 0.008727 -0.999962 Z" fill="#7b00ff" stroke="#7b00ff" stroke-width="0.01"/>
<path d="M 0 0 L -0.000000 -1.000000 A 1 1 0 0 1 0.026177 -0.999657 Z" fill="#7f00ff" stroke="#7f00ff" stroke-width="0.01"/>
<path d="M 0 0 L 0.017452 -0.999848 A 1 1 0 0 1 0.043619 -0.999048 Z" fill="#8300ff" stroke="#8300ff" stroke-width="0.01"/>
<path d="M 0 0 L 0.034899 -0.999391 A 1 1 0 0 1 0.061049 -0.998135 Z" fill="#8700ff" stroke="#8700ff" stroke-width="0.01"/>
<path d="M 0 0 L 0.052336 -0.998630 A 1 1 0 0 1 0.078459 -0.996917 Z" fill="#8c00ff" stroke="#8c00ff" stroke-width="0.01"/>
<path d="M 0 0 L 0.069756 -0.997564 A 1 1 0 0 1 0.095846 -0.995396 Z" fill="#9000ff" stroke="#9000ff" stroke-width="0.01"/>
<path d="M 0 0 L 0.087156 -0.996195 A 1 1 0 0 1 0.113203 -0.993572 Z" fill="#9400ff" stroke="#9400ff" stroke-width="0.01"/>
<path d="M 0 0 L 0.104528 -0.994522 A 1 1 0 0 1 0.130526 -0.991445 Z" fill="#9900ff" stroke="#9900ff" stroke-width="0.01"/>
<path d="M 0 0 L 0.121869 -0.992546 A 1 1 0 0 1 0.147809 -0.989016 Z" fill="#9d00ff" stroke="#9d00ff" stroke-width="0.01"/>
<path d="M 0 0 L 0.139173 -0.990268 A 1 1 0 0 1 0.165048 -0.986286 Z" fill="#a100ff" stroke="#a100ff" stroke-width="0.01"/>
<path d="M 0 0 L 0.156434 -0.987688 A 1 1 0 0 1 0.182236 -0.983255 Z" fill="#a500ff" stroke="#a500ff" stroke-width="0.01"/>
<path d="M 0 0 L 0.173648 -0.984808 A 1 1 0 0 1 0.199368 -0.979925 Z" fill="#aa00ff" stroke="#aa00ff" stroke-width="0.01"/>
<path d="M 0 0 L 0.190809 -0.981627 A 1 1 0 0 1 0.216440 -0.976296 Z" fill="#ae00ff" stroke="#ae00ff" stroke-width="0.01"/>
<path d="M 0 0 L 0.207912 -0.978148 A 1 1 0 0 1 0.233445 -0.972370 Z" fill="#b200ff" stroke="#b200ff" stroke-width="0.01"/>
<path d="M 0 0 L 0.224951 -0.974370 A 1 1 0 0 1 0.250380 -0.968148 Z" fill="#b600ff" stroke="#b600ff" stroke-width="0.01"/>
<path d="M 0 0 L 0.241922 -0.970296 A 1 1 0 0 1 0.267238 -0.963630 Z" fill="#bb00ff" stroke="#bb00ff" stroke-width="0.01"/>
<path d="M 0 0 L 0.258819 -0.965926 A 1 1 0 0 1 0.284015 -0.958820 Z" fill="#bf00ff" stroke="#bf00ff" stroke-width="0.01"/>
<path d="M 0 0 L 0.275637 -0.961262 A 1 1 0 0 1 0.300706 -0.953717 Z" fill="#c300ff" stroke="#c300ff" stroke-width="0.01"/>
<path d="M 0 0 L 0.292372 -0.956305 A 1 1 0 0 1 0.317305 -0.948324 Z" fill="#c700ff" stroke="#c700ff" stroke-width="0.01"/>
<path d="M 0 0 L 0.309017 -0.951057 A 1 1 0 0 1 0.333807 -0.942641 Z" fill="#cc00ff" stroke="#cc00ff" stroke-width="0.01"/>
<path d="M 0 0 L 0.325568 -0.945519 A 1 1 0 0 1 0.350207 -0.936672 Z" fill="#d000ff" stroke="#d000ff" stroke-width="0.01"/>
<path d="M 0 0 L 0.342020 -0.939693 A 1 1 0 0 1 0.366501 -0.930418 Z" fill="#d400ff" stroke="#d400ff" stroke-width="0.01"/>
<path d="M 0 0 L 0.358368 -0.933580 A 1 1 0 0 1 0.382683 -0.923880 Z" fill="#d800ff" stroke="#d800ff" stroke-width="0.01"/>
<path d="M 0 0 L 0.374607 -0.927184 A 1 1 0 0 1 0.398749 -0.917060 Z" fill="#dd00ff" stroke="#dd00ff" stroke-width="0.01"/>
<path d="M 0 0 L 0.390731 -0.920505 A 1 1 0 0 1 0.414693 -0.909961 Z" fill="#e100ff" stroke="#e100ff" stroke-width="0.01"/>
<path d="M 0 0 L 0.406737 -0.913545 A 1 1 0 0 1 0.430511 -0.902585 Z" fill="#e500ff" stroke="#e500ff" stroke-width="0.01"/>
<path d="M 0 0 L 0.422618 -0.906308 A 1 1 0 0 1 0.446198 -0.894934 Z" fill="#e900ff" stroke="#e900ff" stroke-width="0.01"/>
<path d="M 0 0 L 0.438371 -0.898794 A 1 1 0 0 1 0.461749 -0.887011 Z" fill="#ee00ff" stroke="#ee00ff" stroke-width="0.01"/>
<path d="M 0 0 L 0.453990 -0.891007 A 1 1 0 0 1 0.477159 -0.878817 Z" fill="#f200ff" stroke="#f200ff" stroke-width="0.01"/>
<path d="M 0 0 L 0.469472 -0.882948 A 1 1 0 0 1 0.492424 -0.870356 Z" fill="#f600ff" stroke="#f600ff" stroke-width="0.01"/>
<path d="M 0 0 L 0.484810 -0.874620 A 1 1 0 0 1 0.507538 -0.861629 Z" fill="#fa00ff" stroke="#fa00ff" stroke-width="0.01"/>
<path d="M 0 0 L 0.500000 -0.866025 A 1 1 0 0 1 0.522499 -0.852640 Z" fill="#ff00ff" stroke="#ff00ff" stroke-width="0.01"/>
<path d="M 0 0 L 0.515038 -0.857167 A 1 1 0 0 1 0.537300 -0.843391 Z" fill="#ff00fa" stroke="#ff00fa" stroke-width="0.01"/>
<path d="M 0 0 L 0.529919 -0.848048 A 1 1 0 0 1 0.551937 -0.833886 Z" fill="#ff00f6" stroke="#ff00f6" stroke-width="0.01"/>
<path d="M 0 0 L 0.544639 -0.838671 A 1 1 0 0 1 0.566406 -0.824126 Z" fill="#ff00f2" stroke="#ff00f2" stroke-width="0.01"/>
<path d="M 0 0 L 0.559193 -0.829038 A 1 1 0 0 1 0.580703 -0.814116 Z" fill="#ff00ee" stroke="#ff00ee" stroke-width="0.01"/>
<path d="M 0 0 L 0.573576 -0.819152 A 1 1 0 0 1 0.594823 -0.803857 Z" fill="#ff00e9" stroke="#ff00e9" stroke-width="0.01"/>
<path d="M 0 0 L 0.587785 -0.809017 A 1 1 0 0 1 0.608761 -0.793353 Z" fill="#ff00e5" stroke="#ff00e5" stroke-width="0.01"/>
<path d="M 0 0 L 0.601815 -0.798636 A 1 1 0 0 1 0.622515 -0.782608 Z" fill="#ff00e1" stroke="#ff00e1" stroke-width="0.01"/>
<path d="M 0 0 L 0.615661 -0.788011 A 1 1 0 0 1 0.636078 -0.771625 Z" fill="#ff00dd" stroke="#ff00dd" stroke-width="0.01"/>
<path d="M 0 0 L 0.629320 -0.777146 A 1 1 0 0 1 0.649448 -0.760406 Z" fill="#ff00d8" stroke="#ff00d8" stroke-width="0.01"/>
<path d="M 0 0 L 0.642788 -0.766044 A 1 1 0 0 1 0.662620 -0.748956 Z" fill="#ff00d4" stroke="#ff00d4" stroke-width="0.01"/>
<path d="M 0 0 L 0.656059 -0.754710 A 1 1 0 0 1 0.675590 -0.737277 Z" fill="#ff00d0" stroke="#ff00d0" stroke-width="0.01"/>
<path d="M 0 0 L 0.669131 -0.743145 A 1 1 0 0 1 0.688355 -0.725374 Z" fill="#ff00cb" stroke="#ff00cb" stroke-width="0.01"/>
<path d="M 0 0 L 0.681998 -0.731354 A 1 1 0 0 1 0.700909 -0.713250 Z" fill="#ff00c7" stroke="#ff00c7" stroke-width="0.01"/>
<path d="M 0 0 L 0.694658 -0.719340 A 1 1 0 0 1 0.713250 -0.700909 Z" fill="#ff00c3" stroke="#ff00c3" stroke-width="0.01"/>
<path d="M 0 0 L 0.707107 -0.707107 A 1 1 0 0 1 0.725374 -0.688355 Z" fill="#ff00bf" stroke="#ff00bf" stroke-width="0.01"/>
<path d="M 0 0 L 0.719340 -0.694658 A 1 1 0 0 1 0.737277 -0.675590 Z" fill="#ff00bb" stroke="#ff00bb" stroke-width="0.01"/>
<path d="M 0 0 L 0.731354 -0.681998 A 1 1 0 0 1 0.748956 -0.662620 Z" fill="#ff00b6" stroke="#ff00b6" stroke-width="0.01"/>
<path d="M 0 0 L 0.743145 -0.669131 A 1 1 0 0 1 0.760406 -0.649448 Z" fill="#ff00b2" stroke="#ff00b2" stroke-width="0.01"/>
<path d="M 0 0 L 0.754710 -0.656059 A 1 1 0 0 1 0.771625 -0.636078 Z" fill="#ff00ae" stroke="#ff00ae" stroke-width="0.01"/>
<path d="M 0 0 L 0.766044 -0.642788 A 1 1 0 0 1 0.782608 -0.622515 Z" fill="#ff00aa" stroke="#ff00aa" stroke-width="0.01"/>
<path d="M 0 0 L 0.777146 -0.629320 A 1 1 0 0 1 0.793353 -0.608761 Z" fill="#ff00a5" stroke="#ff00a5" stroke-width="0.01"/>
<path d="M 0 0 L 0.788011 -0.615661 A 1 1 0 0 1 0.803857 -0.594823 Z" fill="#ff00a1" stroke="#ff00a1" stroke-width="0.01"/>
<path d="M 0 0 L 0.798636 -0.601815 A 1 1 0 0 1 0.814116 -0.580703 Z" fill="#ff009d" stroke="#ff009d" stroke-width="0.01"/>
<path d="M 0 0 L 0.809017 -0.587785 A 1 1 0 0 1 0.824126 -0.566406 Z" fill="#ff0098" stroke="#ff0098" stroke-width="0.01"/>
<path d="M 0 0 L 0.819152 -0.573576 A 1 1 0 0 1 0.833886 -0.551937 Z" fill="#ff0094" stroke="#ff0094" stroke-width="0.01"/>
<path d="M 0 0 L 0.829038 -0.559193 A 1 1 0 0 1 0.843391 -0.537300 Z" fill="#ff0090" stroke="#ff0090" stroke-width="0.01"/>
<path d="M 0 0 L 0.838671 -0.544639 A 1 1 0 0 1 0.852640 -0.522499 Z" fill="#ff008c" stroke="#ff008c" stroke-width="0.01"/>
<path d="M 0 0 L 0.848048 -0.529919 A 1 1 0 0 1 0.861629 -0.507538 Z" fill="#ff0087" stroke="#ff0087" stroke-width="0.01"/>
<path d="M 0 0 L 0.857167 -0.515038 A 1 1 0 0 1 0.870356 -0.492424 Z" fill="#ff0083" stroke="#ff0083" stroke-width="0.01"/>
<path d="M 0 0 L 0.866025 -0.500000 A 1 1 0 0 1 0.878817 -0.477159 Z" fill="#ff007f" stroke="#ff007f" stroke-width="0.01"/>
<path d="M 0 0 L 0.874620 -0.484810 A 1 1 0 0 1 0.887011 -0.461749 Z" fill="#ff007b" stroke="#ff007b" stroke-width="0.01"/>
<path d="M 0 0 L 0.882948 -0.469472 A 1 1 0 0 1 0.894934 -0.446198 Z" fill="#ff0077" stroke="#ff0077" stroke-width="0.01"/>
<path d="M 0 0 L 0.891007 -0.453990 A 1 1 0 0 1 0.902585 -0.430511 Z" fill="#ff0072" stroke="#ff0072" stroke-width="0.01"/>
<path d="M 0 0 L 0.898794 -0.438371 A 1 1 0 0 1 0.909961 -0.414693 Z" fill="#ff006e" stroke="#ff006e" stroke-width="0.01"/>
<path d="M 0 0 L 0.906308 -0.422618 A 1 1 0 0 1 0.917060 -0.398749 Z" fill="#ff006a" stroke="#ff006a" stroke-width="0.01"/>
<path d="M 0 0 L 0.913545 -0.406737 A 1 1 0 0 1 0.923880 -0.382683 Z" fill="#ff0066" stroke="#ff0066" stroke-width="0.01"/>
<path d="M 0 0 L 0.920505 -0.390731 A 1 1 0 0 1 0.930418 -0.366501 Z" fill="#ff0061" stroke="#ff0061" stroke-width="0.01"/>
<path d="M 0 0 L 0.927184 -0.374607 A 1 1 0 0 1 0.936672 -0.350207 Z" fill="#ff005d" stroke="#ff005d" stroke-width="0.01"/>
<path d="M 0 0 L 0.933580 -0.358368 A 1 1 0 0 1 0.942641 -0.333807 Z" fill="#ff0059" stroke="#ff0059" stroke-width="0.01"/>
<path d="M 0 0 L 0.939693 -0.342020 A 1 1 0 0 1 0.948324 -0.317305 Z" fill="#ff0055" stroke="#ff0055" stroke-width="0.01"/>
<path d="M 0 0 L 0.945519 -0.325568 A 1 1 0 0 1 0.953717 -0.300706 Z" fill="#ff0050" stroke="#ff0050" stroke-width="0.01"/>
<path d="M 0 0 L 0.951057 -0.309017 A 1 1 0 0 1 0.958820 -0.284015 Z" fill="#ff004c" stroke="#ff004c" stroke-width="0.01"/>
<path d="M 0 0 L 0.956305 -0.292372 A 1 1 0 0 1 0.963630 -0.267238 Z" fill="#ff0048" stroke="#ff0048" stroke-width="0.01"/>
<path d="M 0 0 L 0.961262 -0.275637 A 1 1 0 0 1 0.968148 -0.250380 Z" fill="#ff0043" stroke="#ff0043" stroke-width="0.01"/>
<path d="M 0 0 L 0.965926 -0.258819 A 1 1 0 0 1 0.972370 -0.233445 Z" fill="#ff003f" stroke="#ff003f" stroke-width="0.01"/>
<path d="M 0 0 L 0.970296 -0.241922 A 1 1 0 0 1 0.976296 -0.216440 Z" fill="#ff003b" stroke="#ff003b" stroke-width="0.01"/>
<path d="M 0 0 L 0.974370 -0.224951 A 1 1 0 0 1 0.979925 -0.199368 Z" fill="#ff0037" stroke="#ff0037" stroke-width="0.01"/>
<path d="M 0 0 L 0.978148 -0.207912 A 1 1 0 0 1 0.983255 -0.182236 Z" fill="#ff0033" stroke="#ff0033" stroke-width="0.01"/>
<path d="M 0 0 L 0.981627 -0.190809 A 1 1 0 0 1 0.986286 -0.165048 Z" fill="#ff002e" stroke="#ff002e" stroke-width="0.01"/>
<path d="M 0 0 L 0.984808 -0.173648 A 1 1 0 0 1 0.989016 -0.147809 Z" fill="#ff002a" stroke="#ff002a" stroke-width="0.01"/>
<path d="M 0 0 L 0.987688 -0.156434 A 1 1 0 0 1 0.991445 -0.130526 Z" fill="#ff0026" stroke="#ff0026" stroke-width="0.01"/>
<path d="M 0 0 L 0.990268 -0.139173 A 1 1 0 0 1 0.993572 -0.113203 Z" fill="#ff0022" stroke="#ff0022" stroke-width="0.01"/>
<path d="M 0 0 L 0.992546 -0.121869 A 1 1 0 0 1 0.995396 -0.095846 Z" fill="#ff001d" stroke="#ff001d" stroke-width="0.01"/>
<path d="M 0 0 L 0.994522 -0.104528 A 1 1 0 0 1 0.996917 -0.078459 Z" fill="#ff0019" stroke="#ff0019" stroke-width="0.01"/>
<path d="M 0 0 L 0.996195 -0.087156 A 1 1 0 0 1 0.998135 -0.061049 Z" fill="#ff0015" stroke="#ff0015" stroke-width="0.01"/>
<path d="M 0 0 L 0.997564 -0.069756 A 1 1 0 0 1 0.999048 -0.043619 Z" fill="#ff0010" stroke="#ff0010" stroke-width="0.01"/>
<path d="M 0 0 L 0.998630 -0.052336 A 1 1 0 0 1 0.999657 -0.026177 Z" fill="#ff000c" stroke="#ff000c" stroke-width="0.01"/>
<path d="M 0 0 L 0.999391 -0.034899 A 1 1 0 0 1 0.999962 -0.008727 Z" fill="#ff0008" stroke="#ff0008" stroke-width="0.01"/>
<path d="M 0 0 L 0.999848 -0.017452 A 1 1 0 0 1 0.999962 0.008727 Z" fill="#ff0004" stroke="#ff0004" stroke-width="0.01"/>
</svg>